Patient4_TMGait_0pt4_03_right_32_EMG.mot
version=1
nRows=19
nColumns=33
inDegrees=no
endheader
time	1LAddLong	2LGlutMax	3LGlutMed	4LIliopsoas	5LSemiMemb	6LBicFemLong	7LRecFem	8LVastMed	9LVastLat	10LGasMed	11LTibAnt	12lTibPost	13LPeroneusLong	14LSol	15LExtDigLong	16LFlexDigLong	17RAddLong	18RGlutMax	19RGlutMed	20RIliopsoas	21RSemiMemb	22RBicFemLong	23RRecFem	24RVastMed	25RVastLat	26RGasMed	27RTibAnt	28RTibPost	29RPeroneusLong	30RSol	31RExtDigLong	32RFlexDigLong
42.965	-0.005646	-0.070801	-0.10971	0.008087	-0.011292	0.019836	0.000763	0.000458	0.078583	-0.058289	-0.006104	-0.024719	0.11871	0.006104	0.041656	0.009766	-0.000153	-0.08728	-0.11032	0.13123	-0.004578	0.103	-0.056305	-0.043945	0.021667	-0.003357	-0.072327	0.00824	0.34821	-0.10727	-0.011749	0.014801
42.966	0.000153	-0.048676	0.045319	0.026398	0.002136	0.008545	0.013733	-0.010376	0.12421	-0.071411	-0.024872	0.002747	0.14008	0.090637	0.035553	0.008698	0.005493	-0.062408	-0.16098	0.14282	0.005493	0.088348	-0.047302	-0.013428	0.020142	-0.001526	-0.40665	-0.001984	0.32455	-0.085754	-0.010376	0.007935
42.967	0.004578	-0.042725	0.13306	0.018921	0.020294	0.043793	0.000153	-0.009308	0.053711	-0.047607	-0.014648	0.000305	-0.1062	-0.023499	-0.028839	0.005493	0.004578	-0.09079	-0.2858	0.026855	0.023956	0.084381	-0.017395	-0.02243	0.018311	-0.00412	-0.4454	-0.003052	0.055695	-0.049591	-0.01709	0.004578
42.968	0.001678	-0.071259	0.1033	0.016479	0.002289	0.084229	0.000458	-0.002747	-0.008545	-0.018616	0.017548	-0.005646	-0.036316	0.023193	-0.018921	0.01358	0.002899	-0.081329	-0.016632	-0.1004	0.04303	0.08255	-0.03891	-0.049896	0.023804	-0.00473	-0.062256	-0.003662	-0.095978	0.00824	-0.018921	0.008545
42.969	0.00946	-0.075836	0.059204	0.002289	-0.045319	0.087738	0.008392	-0.003052	0.014038	-0.010529	0.055389	0.000458	-0.12604	0.009003	-0.009308	0.006866	0.000458	-0.058746	-0.055847	-0.063477	0.044556	0.074005	-0.052032	-0.059357	0.014038	-0.004272	0.23682	-0.003357	-0.12543	0.053711	-0.012207	0.001068
42.97	-0.007477	-0.066071	-0.002441	0.024109	-0.019226	0.058594	0.009918	-0.005798	0.015869	-0.018463	0.020905	-0.002441	-0.1033	-0.004272	-0.008545	0.004578	-0.002747	-0.092621	-0.11795	0.094757	-0.016632	0.10284	-0.061188	-0.036621	0.021362	0.001373	0.29999	-0.005035	-0.077209	0.003204	-0.014191	0.012512
42.971	0.002441	-0.063019	-0.11993	0.013885	0.016022	0.035095	-0.007935	-0.001068	0.037079	0.008698	-0.032806	-0.002747	-0.022888	-0.072327	0.025635	0.000153	0.002136	-0.11719	0.05188	0.10513	-0.086517	0.13382	-0.06134	-0.048065	0.017242	0.001068	-0.037689	0.000305	-0.095215	-0.012207	-0.019379	0.002747
42.972	0.007935	-0.053558	-0.061035	-0.005951	0.027618	0.053711	-0.013123	-0.002441	0.034943	0.036926	0.005188	-0.010376	-0.02121	-0.030365	0.072479	0.005798	0.009918	-0.13718	0.013733	0.081329	-0.050049	0.13825	-0.033417	-0.020447	0.015564	-0.001373	-0.11658	-0.003357	-0.12802	-0.028992	-0.021362	0.003204
42.973	0.009766	-0.026245	0.13626	0.003204	0.022888	0.036774	-0.019836	0.001984	0.001373	0.039825	0.012207	0.017242	-0.045624	0.044556	0.033417	0.014648	0.016174	-0.098724	-0.014191	0.007477	-0.023651	0.1294	-0.03006	-0.053253	0.016785	-0.002136	-0.29831	-0.00885	-0.14771	-0.037384	-0.016479	0.008545
42.974	0.004425	-0.053864	0.084686	-0.007324	0.029297	0.048523	-0.000763	0.001526	-0.050201	0.018616	0.013733	-0.007782	0.006256	0.039978	-0.04303	0.006866	0.002441	-0.059509	0.016327	0.009155	-0.045166	0.1239	-0.050507	-0.047607	0.007935	-0.001678	-0.24109	-0.004883	0.025787	-0.088196	-0.015259	0.007477
42.975	0.005188	-0.032654	0.12589	-0.025024	0.027771	0.037689	0.016174	0.00351	-0.009918	-0.005493	-0.061188	-0.001526	0.043945	0.036774	-0.058746	0.004272	-0.005341	-0.093536	-0.041046	-0.007935	-0.026855	0.12207	-0.065308	-0.062256	0.00946	-0.003204	-0.065613	-0.005798	0.13534	-0.084534	-0.017395	-0.002441
42.976	0.005341	-0.055695	0.10681	0.006104	0.019684	-0.011597	0.036926	0.001678	0.037842	0.004883	-0.022736	-0.00473	0.011292	0.063171	-0.035553	0.002136	-0.014343	-0.10635	-0.21668	-0.013885	-0.01709	0.093689	-0.037537	-0.074005	0.020294	-0.002441	0.052338	-0.008392	0.034943	-0.065002	-0.01709	0.006866
42.977	0.00946	-0.039978	0.083923	0.033875	0.039368	-0.056305	0.060425	0	0.028534	-0.006104	-0.021515	-0.001984	0.027466	0.063782	0.003204	0.000763	-0.013733	-0.081177	-0.15182	0.012665	-0.011902	0.11337	-0.046234	-0.039368	-0.001984	0.003052	0.22614	-0.006409	-0.09491	-0.065308	-0.016174	0.001221
42.978	0.006256	-0.063782	0.033569	0.036316	0.028076	-0.052795	0.083618	0.004883	-0.003662	-0.013885	-0.012512	-0.005035	0.10559	0.013275	0.012817	-0.002136	-0.014496	-0.1355	-0.11765	-0.007629	-0.053864	0.13458	-0.068054	-0.049591	0.024719	-0.007019	0.18509	0.000458	-0.011749	-0.062256	-0.012512	-0.001373
42.979	0.003052	-0.077362	0.018158	0.015259	0.018463	-0.019989	0.10346	0.010681	0.006104	0.018921	0.056152	-0.005341	0.07309	-0.092468	0.031891	0.003662	-0.014801	-0.13001	-0.090179	-0.001068	-0.013275	0.13275	-0.036469	-0.028534	0.018463	-0.001221	-0.61066	-0.002899	0.17029	-0.079803	-0.02121	-0.001068
42.98	0.010071	-0.055847	0.070343	-0.00824	0.014801	-0.004425	0.061646	0.003204	-0.009003	0.021973	0.003204	0.003967	-0.12619	-0.036926	0.022125	-0.010986	-0.000153	-0.1004	0.007477	0.011749	0.016632	0.10712	-0.047302	-0.058136	0.009308	-0.00061	-0.39429	-0.006409	0.1152	-0.08194	-0.018158	0.005341
42.981	0.005798	-0.031738	0.060577	-0.032806	0.024261	0.011597	0.001526	0.016327	-0.011749	0.03006	0.021515	-0.009918	0.10071	0.002594	-0.009766	0.001526	-0.011902	-0.1149	-0.10864	0.006104	0.02655	0.10284	0.019836	-0.081329	0.014801	-0.002747	-0.14603	-0.006409	0.077667	-0.081177	-0.024109	0.004425
42.982	0.01236	-0.059357	0.13001	-0.012207	0.017395	-0.009155	-0.047302	0.003967	0.036316	0.049133	0.022736	-0.00885	0.25421	-0.006409	-0.065613	-0.000458	-0.005341	-0.089722	-0.24048	0.015869	-0.022278	0.059967	-0.036774	-0.077667	0.014343	-0.000916	-0.085144	-0.00473	0.21912	-0.11932	-0.021973	0.001373
42.983	0.007324	-0.053406	0.13931	0.010071	0.010223	-0.036316	-0.005798	0.002594	0.023499	0.002747	-0.021515	-0.000153	-0.021057	0.1355	-0.06073	0.015411	-0.007172	-0.096588	-0.24384	-0.036926	-0.031433	0.041199	-0.005951	-0.044098	0.017242	-0.003967	-0.028534	-0.006714	0.083313	-0.092926	-0.014954	0.009918
